<svg width="24" height="24" viewBox="0 0 24 24" fill="none" xmlns="http://www.w3.org/2000/svg">
<path d="M16.852 5.90601L15.409 7.14301C15.283 7.25101 15.269 7.44001 15.376 7.56601L18.105 10.75H2.3C2.134 10.75 2 10.884 2 11.05V12.95C2 13.116 2.134 13.25 2.3 13.25H18.107L15.377 16.434C15.269 16.56 15.284 16.749 15.41 16.857L16.853 18.094C16.979 18.202 17.168 18.187 17.276 18.061L21.914 12.651C22.235 12.277 22.235 11.724 21.914 11.349L17.276 5.93801C17.168 5.81201 16.979 5.79801 16.853 5.90501L16.852 5.90601Z" fill="#343637"/>
</svg>
