<svg width="36" height="36" viewBox="0 0 36 36" fill="none" xmlns="http://www.w3.org/2000/svg">
<path d="M17.4541 34.4955C9.83261 34.2045 3.91211 27.687 3.91211 20.034V16.182C3.91211 14.82 5.00861 13.7205 6.36761 13.7205H29.6311C30.9886 13.7205 32.0866 14.82 32.0866 16.182V20.3775C32.0866 28.344 25.4701 34.791 17.4541 34.4895V34.4955ZM8.81711 18.6435V20.1165C8.81711 25.0635 12.6016 29.328 17.5291 29.5725C22.8001 29.835 27.1696 25.6095 27.1696 20.3835V18.6435H8.81711ZM16.4731 9.48748H7.51061C5.92661 9.48748 4.51511 8.32948 4.36511 6.74698C4.19111 4.93648 5.60711 3.41248 7.38311 3.41248H16.3456C17.9296 3.41248 19.3411 4.57048 19.4911 6.15298C19.6651 7.96348 18.2491 9.48748 16.4731 9.48748Z" fill="#1A579A"/>
<path d="M26.6995 9.86396C28.5805 9.86396 30.106 8.33396 30.106 6.44846C30.106 4.56296 28.5805 3.03296 26.6995 3.03296C24.8185 3.03296 23.293 4.56296 23.293 6.44846C23.293 8.33396 24.8185 9.86396 26.6995 9.86396Z" fill="#73B5E3"/>
</svg>
