<svg width="24" height="24" viewBox="0 0 24 24" fill="none" xmlns="http://www.w3.org/2000/svg">
<path d="M7.36392 14.553C5.21592 15.737 3.10092 16.055 2.31792 16.135C2.14492 16.153 1.99592 16.021 1.98892 15.847L1.92692 14.2C1.92092 14.041 2.03392 13.907 2.19192 13.891C2.74192 13.837 4.01492 13.654 5.41792 13.041C4.19692 11.862 3.48892 10.677 3.20592 10.148C3.12492 9.99597 3.19292 9.81197 3.34892 9.73997L4.85192 9.05097C4.99492 8.98497 5.15992 9.03597 5.23592 9.17397C5.50592 9.66397 6.20992 10.797 7.43692 11.831C8.87492 10.707 10.1429 8.97197 10.6069 6.29697H1.59492C1.42892 6.29697 1.29492 6.16297 1.29492 5.99697V4.34697C1.29492 4.18097 1.42892 4.04697 1.59492 4.04697H6.37992V1.81697C6.37992 1.65097 6.51392 1.51697 6.67992 1.51697H8.32992C8.49592 1.51697 8.62992 1.65097 8.62992 1.81697V4.04897H14.7679C14.9339 4.04897 15.0679 4.18297 15.0679 4.34897V5.99897C15.0679 6.16497 14.9339 6.29897 14.7679 6.29897H12.8979C12.4449 9.48597 11.0589 11.642 9.41892 13.104C10.0069 13.376 10.6609 13.597 11.3849 13.738C11.5779 13.776 11.6899 13.978 11.6059 14.156L10.8799 15.69C10.8189 15.819 10.6709 15.89 10.5319 15.858C9.31192 15.573 8.26292 15.105 7.36492 14.554L7.36392 14.553ZM19.2629 18.359H14.1019L12.6449 21.531C12.5959 21.638 12.4899 21.706 12.3719 21.706H10.5549C10.3359 21.706 10.1909 21.48 10.2819 21.281L15.5719 9.76697C15.9209 9.00797 16.9899 8.98597 17.3709 9.72897L23.2779 21.27C23.3799 21.47 23.2349 21.707 23.0109 21.707H21.1579C21.0449 21.707 20.9419 21.644 20.8909 21.544L19.2619 18.361L19.2629 18.359ZM18.1119 16.109L16.5429 13.046L15.1359 16.109H18.1119Z" fill="#1A579A"/>
</svg>
