<svg width="66" height="32" viewBox="0 0 66 32" fill="none" xmlns="http://www.w3.org/2000/svg">
<mask id="path-1-outside-1_5290_24191" maskUnits="userSpaceOnUse" x="0.757812" y="0.695312" width="65" height="31" fill="black">
<rect fill="white" x="0.757812" y="0.695312" width="65" height="31"/>
<path d="M17.3809 21.5762V23.1094H10.2715V21.5762H17.3809ZM10.6426 8.89062V23.1094H8.75781V8.89062H10.6426Z"/>
<path d="M29.8418 15.5508V16.4492C29.8418 17.5169 29.7083 18.474 29.4414 19.3203C29.1745 20.1667 28.7904 20.8861 28.2891 21.4785C27.7878 22.071 27.1855 22.5234 26.4824 22.8359C25.7858 23.1484 25.0046 23.3047 24.1387 23.3047C23.2988 23.3047 22.5273 23.1484 21.8242 22.8359C21.1276 22.5234 20.5221 22.071 20.0078 21.4785C19.5 20.8861 19.1061 20.1667 18.8262 19.3203C18.5462 18.474 18.4062 17.5169 18.4062 16.4492V15.5508C18.4062 14.4831 18.543 13.5293 18.8164 12.6895C19.0964 11.8431 19.4902 11.1237 19.998 10.5312C20.5059 9.93229 21.1081 9.47656 21.8047 9.16406C22.5078 8.85156 23.2793 8.69531 24.1191 8.69531C24.985 8.69531 25.7663 8.85156 26.4629 9.16406C27.166 9.47656 27.7682 9.93229 28.2695 10.5312C28.7773 11.1237 29.1647 11.8431 29.4316 12.6895C29.7051 13.5293 29.8418 14.4831 29.8418 15.5508ZM27.9766 16.4492V15.5312C27.9766 14.6849 27.8887 13.9362 27.7129 13.2852C27.5436 12.6341 27.293 12.0872 26.9609 11.6445C26.6289 11.2018 26.222 10.8665 25.7402 10.6387C25.265 10.4108 24.7246 10.2969 24.1191 10.2969C23.5332 10.2969 23.0026 10.4108 22.5273 10.6387C22.0586 10.8665 21.6549 11.2018 21.3164 11.6445C20.9844 12.0872 20.7272 12.6341 20.5449 13.2852C20.3626 13.9362 20.2715 14.6849 20.2715 15.5312V16.4492C20.2715 17.3021 20.3626 18.0573 20.5449 18.7148C20.7272 19.3659 20.9876 19.916 21.3262 20.3652C21.6712 20.8079 22.0781 21.1432 22.5469 21.3711C23.0221 21.599 23.5527 21.7129 24.1387 21.7129C24.7507 21.7129 25.2943 21.599 25.7695 21.3711C26.2448 21.1432 26.6452 20.8079 26.9707 20.3652C27.3027 19.916 27.5534 19.3659 27.7227 18.7148C27.8919 18.0573 27.9766 17.3021 27.9766 16.4492Z"/>
<path d="M43.1719 16.0293V21.2344C42.9961 21.4948 42.7161 21.7878 42.332 22.1133C41.9479 22.4323 41.4173 22.7122 40.7402 22.9531C40.0697 23.1875 39.2038 23.3047 38.1426 23.3047C37.2767 23.3047 36.4792 23.1549 35.75 22.8555C35.0273 22.5495 34.3991 22.1068 33.8652 21.5273C33.3379 20.9414 32.9277 20.2318 32.6348 19.3984C32.3483 18.5586 32.2051 17.6081 32.2051 16.5469V15.4434C32.2051 14.3822 32.3288 13.4349 32.5762 12.6016C32.8301 11.7682 33.2012 11.0618 33.6895 10.4824C34.1777 9.89648 34.7767 9.45378 35.4863 9.1543C36.196 8.84831 37.0098 8.69531 37.9277 8.69531C39.015 8.69531 39.9232 8.88411 40.6523 9.26172C41.388 9.63281 41.9609 10.1471 42.3711 10.8047C42.7878 11.4622 43.0547 12.2109 43.1719 13.0508H41.2871C41.2025 12.5365 41.0332 12.0677 40.7793 11.6445C40.5319 11.2214 40.1771 10.8828 39.7148 10.6289C39.2526 10.3685 38.6569 10.2383 37.9277 10.2383C37.2702 10.2383 36.7005 10.3587 36.2188 10.5996C35.737 10.8405 35.3398 11.1855 35.0273 11.6348C34.7148 12.084 34.4805 12.6276 34.3242 13.2656C34.1745 13.9036 34.0996 14.623 34.0996 15.4238V16.5469C34.0996 17.3672 34.194 18.0996 34.3828 18.7441C34.5781 19.3887 34.8548 19.9388 35.2129 20.3945C35.571 20.8438 35.9974 21.1855 36.4922 21.4199C36.9935 21.6543 37.5469 21.7715 38.1523 21.7715C38.8229 21.7715 39.3665 21.7161 39.7832 21.6055C40.1999 21.4883 40.5254 21.3516 40.7598 21.1953C40.9941 21.0326 41.1732 20.8796 41.2969 20.7363V17.5527H38.0059V16.0293H43.1719Z"/>
<path d="M57.2441 15.5508V16.4492C57.2441 17.5169 57.1107 18.474 56.8438 19.3203C56.5768 20.1667 56.1927 20.8861 55.6914 21.4785C55.1901 22.071 54.5879 22.5234 53.8848 22.8359C53.1882 23.1484 52.4069 23.3047 51.541 23.3047C50.7012 23.3047 49.9297 23.1484 49.2266 22.8359C48.5299 22.5234 47.9245 22.071 47.4102 21.4785C46.9023 20.8861 46.5085 20.1667 46.2285 19.3203C45.9486 18.474 45.8086 17.5169 45.8086 16.4492V15.5508C45.8086 14.4831 45.9453 13.5293 46.2188 12.6895C46.4987 11.8431 46.8926 11.1237 47.4004 10.5312C47.9082 9.93229 48.5104 9.47656 49.207 9.16406C49.9102 8.85156 50.6816 8.69531 51.5215 8.69531C52.3874 8.69531 53.1686 8.85156 53.8652 9.16406C54.5684 9.47656 55.1706 9.93229 55.6719 10.5312C56.1797 11.1237 56.5671 11.8431 56.834 12.6895C57.1074 13.5293 57.2441 14.4831 57.2441 15.5508ZM55.3789 16.4492V15.5312C55.3789 14.6849 55.291 13.9362 55.1152 13.2852C54.946 12.6341 54.6953 12.0872 54.3633 11.6445C54.0312 11.2018 53.6243 10.8665 53.1426 10.6387C52.6673 10.4108 52.127 10.2969 51.5215 10.2969C50.9355 10.2969 50.4049 10.4108 49.9297 10.6387C49.4609 10.8665 49.0573 11.2018 48.7188 11.6445C48.3867 12.0872 48.1296 12.6341 47.9473 13.2852C47.765 13.9362 47.6738 14.6849 47.6738 15.5312V16.4492C47.6738 17.3021 47.765 18.0573 47.9473 18.7148C48.1296 19.3659 48.39 19.916 48.7285 20.3652C49.0736 20.8079 49.4805 21.1432 49.9492 21.3711C50.4245 21.599 50.9551 21.7129 51.541 21.7129C52.153 21.7129 52.6966 21.599 53.1719 21.3711C53.6471 21.1432 54.0475 20.8079 54.373 20.3652C54.7051 19.916 54.9557 19.3659 55.125 18.7148C55.2943 18.0573 55.3789 17.3021 55.3789 16.4492Z"/>
</mask>
<path d="M17.3809 21.5762V23.1094H10.2715V21.5762H17.3809ZM10.6426 8.89062V23.1094H8.75781V8.89062H10.6426Z" fill="#3D7FB1"/>
<path d="M29.8418 15.5508V16.4492C29.8418 17.5169 29.7083 18.474 29.4414 19.3203C29.1745 20.1667 28.7904 20.8861 28.2891 21.4785C27.7878 22.071 27.1855 22.5234 26.4824 22.8359C25.7858 23.1484 25.0046 23.3047 24.1387 23.3047C23.2988 23.3047 22.5273 23.1484 21.8242 22.8359C21.1276 22.5234 20.5221 22.071 20.0078 21.4785C19.5 20.8861 19.1061 20.1667 18.8262 19.3203C18.5462 18.474 18.4062 17.5169 18.4062 16.4492V15.5508C18.4062 14.4831 18.543 13.5293 18.8164 12.6895C19.0964 11.8431 19.4902 11.1237 19.998 10.5312C20.5059 9.93229 21.1081 9.47656 21.8047 9.16406C22.5078 8.85156 23.2793 8.69531 24.1191 8.69531C24.985 8.69531 25.7663 8.85156 26.4629 9.16406C27.166 9.47656 27.7682 9.93229 28.2695 10.5312C28.7773 11.1237 29.1647 11.8431 29.4316 12.6895C29.7051 13.5293 29.8418 14.4831 29.8418 15.5508ZM27.9766 16.4492V15.5312C27.9766 14.6849 27.8887 13.9362 27.7129 13.2852C27.5436 12.6341 27.293 12.0872 26.9609 11.6445C26.6289 11.2018 26.222 10.8665 25.7402 10.6387C25.265 10.4108 24.7246 10.2969 24.1191 10.2969C23.5332 10.2969 23.0026 10.4108 22.5273 10.6387C22.0586 10.8665 21.6549 11.2018 21.3164 11.6445C20.9844 12.0872 20.7272 12.6341 20.5449 13.2852C20.3626 13.9362 20.2715 14.6849 20.2715 15.5312V16.4492C20.2715 17.3021 20.3626 18.0573 20.5449 18.7148C20.7272 19.3659 20.9876 19.916 21.3262 20.3652C21.6712 20.8079 22.0781 21.1432 22.5469 21.3711C23.0221 21.599 23.5527 21.7129 24.1387 21.7129C24.7507 21.7129 25.2943 21.599 25.7695 21.3711C26.2448 21.1432 26.6452 20.8079 26.9707 20.3652C27.3027 19.916 27.5534 19.3659 27.7227 18.7148C27.8919 18.0573 27.9766 17.3021 27.9766 16.4492Z" fill="#3D7FB1"/>
<path d="M43.1719 16.0293V21.2344C42.9961 21.4948 42.7161 21.7878 42.332 22.1133C41.9479 22.4323 41.4173 22.7122 40.7402 22.9531C40.0697 23.1875 39.2038 23.3047 38.1426 23.3047C37.2767 23.3047 36.4792 23.1549 35.75 22.8555C35.0273 22.5495 34.3991 22.1068 33.8652 21.5273C33.3379 20.9414 32.9277 20.2318 32.6348 19.3984C32.3483 18.5586 32.2051 17.6081 32.2051 16.5469V15.4434C32.2051 14.3822 32.3288 13.4349 32.5762 12.6016C32.8301 11.7682 33.2012 11.0618 33.6895 10.4824C34.1777 9.89648 34.7767 9.45378 35.4863 9.1543C36.196 8.84831 37.0098 8.69531 37.9277 8.69531C39.015 8.69531 39.9232 8.88411 40.6523 9.26172C41.388 9.63281 41.9609 10.1471 42.3711 10.8047C42.7878 11.4622 43.0547 12.2109 43.1719 13.0508H41.2871C41.2025 12.5365 41.0332 12.0677 40.7793 11.6445C40.5319 11.2214 40.1771 10.8828 39.7148 10.6289C39.2526 10.3685 38.6569 10.2383 37.9277 10.2383C37.2702 10.2383 36.7005 10.3587 36.2188 10.5996C35.737 10.8405 35.3398 11.1855 35.0273 11.6348C34.7148 12.084 34.4805 12.6276 34.3242 13.2656C34.1745 13.9036 34.0996 14.623 34.0996 15.4238V16.5469C34.0996 17.3672 34.194 18.0996 34.3828 18.7441C34.5781 19.3887 34.8548 19.9388 35.2129 20.3945C35.571 20.8438 35.9974 21.1855 36.4922 21.4199C36.9935 21.6543 37.5469 21.7715 38.1523 21.7715C38.8229 21.7715 39.3665 21.7161 39.7832 21.6055C40.1999 21.4883 40.5254 21.3516 40.7598 21.1953C40.9941 21.0326 41.1732 20.8796 41.2969 20.7363V17.5527H38.0059V16.0293H43.1719Z" fill="#3D7FB1"/>
<path d="M57.2441 15.5508V16.4492C57.2441 17.5169 57.1107 18.474 56.8438 19.3203C56.5768 20.1667 56.1927 20.8861 55.6914 21.4785C55.1901 22.071 54.5879 22.5234 53.8848 22.8359C53.1882 23.1484 52.4069 23.3047 51.541 23.3047C50.7012 23.3047 49.9297 23.1484 49.2266 22.8359C48.5299 22.5234 47.9245 22.071 47.4102 21.4785C46.9023 20.8861 46.5085 20.1667 46.2285 19.3203C45.9486 18.474 45.8086 17.5169 45.8086 16.4492V15.5508C45.8086 14.4831 45.9453 13.5293 46.2188 12.6895C46.4987 11.8431 46.8926 11.1237 47.4004 10.5312C47.9082 9.93229 48.5104 9.47656 49.207 9.16406C49.9102 8.85156 50.6816 8.69531 51.5215 8.69531C52.3874 8.69531 53.1686 8.85156 53.8652 9.16406C54.5684 9.47656 55.1706 9.93229 55.6719 10.5312C56.1797 11.1237 56.5671 11.8431 56.834 12.6895C57.1074 13.5293 57.2441 14.4831 57.2441 15.5508ZM55.3789 16.4492V15.5312C55.3789 14.6849 55.291 13.9362 55.1152 13.2852C54.946 12.6341 54.6953 12.0872 54.3633 11.6445C54.0312 11.2018 53.6243 10.8665 53.1426 10.6387C52.6673 10.4108 52.127 10.2969 51.5215 10.2969C50.9355 10.2969 50.4049 10.4108 49.9297 10.6387C49.4609 10.8665 49.0573 11.2018 48.7188 11.6445C48.3867 12.0872 48.1296 12.6341 47.9473 13.2852C47.765 13.9362 47.6738 14.6849 47.6738 15.5312V16.4492C47.6738 17.3021 47.765 18.0573 47.9473 18.7148C48.1296 19.3659 48.39 19.916 48.7285 20.3652C49.0736 20.8079 49.4805 21.1432 49.9492 21.3711C50.4245 21.599 50.9551 21.7129 51.541 21.7129C52.153 21.7129 52.6966 21.599 53.1719 21.3711C53.6471 21.1432 54.0475 20.8079 54.373 20.3652C54.7051 19.916 54.9557 19.3659 55.125 18.7148C55.2943 18.0573 55.3789 17.3021 55.3789 16.4492Z" fill="#3D7FB1"/>
<path d="M17.3809 21.5762V23.1094H10.2715V21.5762H17.3809ZM10.6426 8.89062V23.1094H8.75781V8.89062H10.6426Z" stroke="#DEEDFF" stroke-width="16" mask="url(#path-1-outside-1_5290_24191)"/>
<path d="M29.8418 15.5508V16.4492C29.8418 17.5169 29.7083 18.474 29.4414 19.3203C29.1745 20.1667 28.7904 20.8861 28.2891 21.4785C27.7878 22.071 27.1855 22.5234 26.4824 22.8359C25.7858 23.1484 25.0046 23.3047 24.1387 23.3047C23.2988 23.3047 22.5273 23.1484 21.8242 22.8359C21.1276 22.5234 20.5221 22.071 20.0078 21.4785C19.5 20.8861 19.1061 20.1667 18.8262 19.3203C18.5462 18.474 18.4062 17.5169 18.4062 16.4492V15.5508C18.4062 14.4831 18.543 13.5293 18.8164 12.6895C19.0964 11.8431 19.4902 11.1237 19.998 10.5312C20.5059 9.93229 21.1081 9.47656 21.8047 9.16406C22.5078 8.85156 23.2793 8.69531 24.1191 8.69531C24.985 8.69531 25.7663 8.85156 26.4629 9.16406C27.166 9.47656 27.7682 9.93229 28.2695 10.5312C28.7773 11.1237 29.1647 11.8431 29.4316 12.6895C29.7051 13.5293 29.8418 14.4831 29.8418 15.5508ZM27.9766 16.4492V15.5312C27.9766 14.6849 27.8887 13.9362 27.7129 13.2852C27.5436 12.6341 27.293 12.0872 26.9609 11.6445C26.6289 11.2018 26.222 10.8665 25.7402 10.6387C25.265 10.4108 24.7246 10.2969 24.1191 10.2969C23.5332 10.2969 23.0026 10.4108 22.5273 10.6387C22.0586 10.8665 21.6549 11.2018 21.3164 11.6445C20.9844 12.0872 20.7272 12.6341 20.5449 13.2852C20.3626 13.9362 20.2715 14.6849 20.2715 15.5312V16.4492C20.2715 17.3021 20.3626 18.0573 20.5449 18.7148C20.7272 19.3659 20.9876 19.916 21.3262 20.3652C21.6712 20.8079 22.0781 21.1432 22.5469 21.3711C23.0221 21.599 23.5527 21.7129 24.1387 21.7129C24.7507 21.7129 25.2943 21.599 25.7695 21.3711C26.2448 21.1432 26.6452 20.8079 26.9707 20.3652C27.3027 19.916 27.5534 19.3659 27.7227 18.7148C27.8919 18.0573 27.9766 17.3021 27.9766 16.4492Z" stroke="#DEEDFF" stroke-width="16" mask="url(#path-1-outside-1_5290_24191)"/>
<path d="M43.1719 16.0293V21.2344C42.9961 21.4948 42.7161 21.7878 42.332 22.1133C41.9479 22.4323 41.4173 22.7122 40.7402 22.9531C40.0697 23.1875 39.2038 23.3047 38.1426 23.3047C37.2767 23.3047 36.4792 23.1549 35.75 22.8555C35.0273 22.5495 34.3991 22.1068 33.8652 21.5273C33.3379 20.9414 32.9277 20.2318 32.6348 19.3984C32.3483 18.5586 32.2051 17.6081 32.2051 16.5469V15.4434C32.2051 14.3822 32.3288 13.4349 32.5762 12.6016C32.8301 11.7682 33.2012 11.0618 33.6895 10.4824C34.1777 9.89648 34.7767 9.45378 35.4863 9.1543C36.196 8.84831 37.0098 8.69531 37.9277 8.69531C39.015 8.69531 39.9232 8.88411 40.6523 9.26172C41.388 9.63281 41.9609 10.1471 42.3711 10.8047C42.7878 11.4622 43.0547 12.2109 43.1719 13.0508H41.2871C41.2025 12.5365 41.0332 12.0677 40.7793 11.6445C40.5319 11.2214 40.1771 10.8828 39.7148 10.6289C39.2526 10.3685 38.6569 10.2383 37.9277 10.2383C37.2702 10.2383 36.7005 10.3587 36.2188 10.5996C35.737 10.8405 35.3398 11.1855 35.0273 11.6348C34.7148 12.084 34.4805 12.6276 34.3242 13.2656C34.1745 13.9036 34.0996 14.623 34.0996 15.4238V16.5469C34.0996 17.3672 34.194 18.0996 34.3828 18.7441C34.5781 19.3887 34.8548 19.9388 35.2129 20.3945C35.571 20.8438 35.9974 21.1855 36.4922 21.4199C36.9935 21.6543 37.5469 21.7715 38.1523 21.7715C38.8229 21.7715 39.3665 21.7161 39.7832 21.6055C40.1999 21.4883 40.5254 21.3516 40.7598 21.1953C40.9941 21.0326 41.1732 20.8796 41.2969 20.7363V17.5527H38.0059V16.0293H43.1719Z" stroke="#DEEDFF" stroke-width="16" mask="url(#path-1-outside-1_5290_24191)"/>
<path d="M57.2441 15.5508V16.4492C57.2441 17.5169 57.1107 18.474 56.8438 19.3203C56.5768 20.1667 56.1927 20.8861 55.6914 21.4785C55.1901 22.071 54.5879 22.5234 53.8848 22.8359C53.1882 23.1484 52.4069 23.3047 51.541 23.3047C50.7012 23.3047 49.9297 23.1484 49.2266 22.8359C48.5299 22.5234 47.9245 22.071 47.4102 21.4785C46.9023 20.8861 46.5085 20.1667 46.2285 19.3203C45.9486 18.474 45.8086 17.5169 45.8086 16.4492V15.5508C45.8086 14.4831 45.9453 13.5293 46.2188 12.6895C46.4987 11.8431 46.8926 11.1237 47.4004 10.5312C47.9082 9.93229 48.5104 9.47656 49.207 9.16406C49.9102 8.85156 50.6816 8.69531 51.5215 8.69531C52.3874 8.69531 53.1686 8.85156 53.8652 9.16406C54.5684 9.47656 55.1706 9.93229 55.6719 10.5312C56.1797 11.1237 56.5671 11.8431 56.834 12.6895C57.1074 13.5293 57.2441 14.4831 57.2441 15.5508ZM55.3789 16.4492V15.5312C55.3789 14.6849 55.291 13.9362 55.1152 13.2852C54.946 12.6341 54.6953 12.0872 54.3633 11.6445C54.0312 11.2018 53.6243 10.8665 53.1426 10.6387C52.6673 10.4108 52.127 10.2969 51.5215 10.2969C50.9355 10.2969 50.4049 10.4108 49.9297 10.6387C49.4609 10.8665 49.0573 11.2018 48.7188 11.6445C48.3867 12.0872 48.1296 12.6341 47.9473 13.2852C47.765 13.9362 47.6738 14.6849 47.6738 15.5312V16.4492C47.6738 17.3021 47.765 18.0573 47.9473 18.7148C48.1296 19.3659 48.39 19.916 48.7285 20.3652C49.0736 20.8079 49.4805 21.1432 49.9492 21.3711C50.4245 21.599 50.9551 21.7129 51.541 21.7129C52.153 21.7129 52.6966 21.599 53.1719 21.3711C53.6471 21.1432 54.0475 20.8079 54.373 20.3652C54.7051 19.916 54.9557 19.3659 55.125 18.7148C55.2943 18.0573 55.3789 17.3021 55.3789 16.4492Z" stroke="#DEEDFF" stroke-width="16" mask="url(#path-1-outside-1_5290_24191)"/>
</svg>
