<svg width="22" height="22" viewBox="0 0 22 22" fill="none" xmlns="http://www.w3.org/2000/svg">
<path d="M10.9854 17.1875C7.63645 17.1875 4.2011 15.2492 1.49664 11.3725C1.41945 11.2607 1.37714 11.1284 1.37508 10.9925C1.37301 10.8566 1.41128 10.7231 1.48504 10.609C3.56301 7.35625 6.95239 4.8125 10.9854 4.8125C14.9747 4.8125 18.4336 7.36398 20.5155 10.624C20.5875 10.736 20.6258 10.8662 20.6258 10.9994C20.6258 11.1325 20.5875 11.2628 20.5155 11.3747C18.4289 14.5973 14.9446 17.1875 10.9854 17.1875Z" stroke="black" stroke-width="1.5" stroke-linecap="round" stroke-linejoin="round"/>
<path d="M11.0009 9.30765C11.9355 9.30765 12.6932 10.0653 12.6932 11C12.6932 11.9346 11.9355 12.6923 11.0009 12.6923C10.0663 12.6923 9.30859 11.9346 9.30859 11C9.30859 10.0653 10.0663 9.30765 11.0009 9.30765Z" stroke="black" stroke-width="1.5" stroke-miterlimit="10"/>
</svg>
