<svg width="84" height="42" viewBox="0 0 84 42" fill="none" xmlns="http://www.w3.org/2000/svg">
<g clip-path="url(#clip0_5290_5362)">
<mask id="mask0_5290_5362" style="mask-type:luminance" maskUnits="userSpaceOnUse" x="0" y="0" width="84" height="42">
<path d="M84 0H0V42H84V0Z" fill="white"/>
</mask>
<g mask="url(#mask0_5290_5362)">
<path d="M47.3684 21.2822V25.4975C47.3684 25.8868 47.4595 26.189 47.6365 26.4041C47.8136 26.6193 48.0869 26.7217 48.4563 26.7217C48.8257 26.7217 49.099 26.6141 49.2862 26.399C49.4734 26.1839 49.5645 25.8817 49.5645 25.4975V21.2822H51.5583V25.4975C51.5583 26.1634 51.4165 26.7319 51.1433 27.2031C50.865 27.6743 50.4855 28.0278 50.0098 28.2634C49.5291 28.499 49.0028 28.6168 48.4158 28.6168C47.8288 28.6168 47.3127 28.499 46.8522 28.2634C46.3917 28.0278 46.0324 27.6744 45.7744 27.2082C45.5112 26.7422 45.3848 26.1737 45.3848 25.4975V21.2822H47.3684ZM49.438 21.0773L47.4291 21.3949V20.3141L49.438 19.8737V21.0773Z" fill="#E30238"/>
<path d="M59.3102 28.5438H57.3164L54.6598 24.4821V28.5438H52.666V21.2809H54.6598L57.3164 25.3938V21.2809H59.3102V28.5438Z" fill="#E30238"/>
<path d="M62.4488 21.2809V28.5438H60.4551V21.2809H62.4488Z" fill="#E30238"/>
<path d="M63.7852 22.9888C64.0786 22.4305 64.4986 21.9951 65.0401 21.6826C65.5815 21.3702 66.209 21.2114 66.9124 21.2114C67.8081 21.2114 68.562 21.4522 69.1743 21.9388C69.7866 22.4253 70.1762 23.081 70.3534 23.9107H68.2078C68.0813 23.6341 67.8991 23.4241 67.6714 23.2807C67.4437 23.1373 67.1806 23.0656 66.882 23.0656C66.4215 23.0656 66.0522 23.2346 65.7789 23.5675C65.5057 23.9005 65.369 24.3461 65.369 24.9044C65.369 25.4626 65.5057 25.9134 65.7789 26.2463C66.0522 26.5793 66.4215 26.7482 66.882 26.7482C67.1806 26.7482 67.4437 26.6766 67.6714 26.5331C67.8991 26.3897 68.0762 26.1797 68.2078 25.9031H70.3534C70.1762 26.7329 69.7815 27.3937 69.1743 27.8751C68.562 28.3617 67.8081 28.6025 66.9124 28.6025C66.2039 28.6025 65.5815 28.4488 65.0401 28.1312C64.4986 27.8188 64.0786 27.3834 63.7852 26.8251C63.4917 26.2668 63.3398 25.6266 63.3398 24.9044C63.3398 24.1822 63.4866 23.5522 63.7852 22.9938V22.9888Z" fill="#E30238"/>
<path d="M75.8432 27.3606H73.2979L72.9133 28.5438H70.8184L73.4345 21.2809H75.7369L78.3429 28.5438H76.2379L75.8533 27.3606H75.8432ZM75.3422 25.8138L74.568 23.4628L73.8039 25.8138H75.3422Z" fill="#E30238"/>
<path d="M46.1233 15.7763C46.3004 15.4638 46.5383 15.2231 46.8419 15.0489C47.1455 14.8748 47.4896 14.7877 47.864 14.7877C48.3043 14.7877 48.694 14.9004 49.0279 15.1309C49.3619 15.3613 49.5947 15.6789 49.7262 16.0836H48.8154C48.7243 15.894 48.5978 15.7507 48.4308 15.6533C48.2638 15.556 48.0766 15.5099 47.859 15.5099C47.6262 15.5099 47.4238 15.5663 47.2416 15.6738C47.0595 15.7813 46.9228 15.935 46.8216 16.1348C46.7204 16.3345 46.6698 16.565 46.6698 16.8365C46.6698 17.108 46.7204 17.3333 46.8216 17.5331C46.9228 17.7328 47.0595 17.8865 47.2416 17.9992C47.4238 18.1119 47.6262 18.1631 47.859 18.1631C48.0766 18.1631 48.2638 18.1119 48.4308 18.0145C48.5928 17.9172 48.7243 17.7738 48.8154 17.5792H49.7262C49.5947 17.9889 49.3619 18.3065 49.033 18.5369C48.704 18.7675 48.3144 18.8801 47.8691 18.8801C47.4896 18.8801 47.1505 18.7931 46.8469 18.6189C46.5433 18.4448 46.3004 18.204 46.1284 17.8916C45.9513 17.5792 45.8652 17.2309 45.8652 16.8365C45.8652 16.4421 45.9513 16.0887 46.1284 15.7763H46.1233Z" fill="#003876"/>
<path d="M52.8941 14.8381V17.3172C52.8941 17.5886 52.965 17.7987 53.1067 17.942C53.2483 18.0855 53.4406 18.1572 53.6936 18.1572C53.9466 18.1572 54.149 18.0855 54.2907 17.942C54.4324 17.7987 54.4982 17.5886 54.4982 17.3172V14.8381H55.2977V17.312C55.2977 17.6552 55.2269 17.942 55.0802 18.1776C54.9334 18.4132 54.7411 18.5925 54.4982 18.7103C54.2553 18.8281 53.9821 18.8896 53.6835 18.8896C53.385 18.8896 53.1218 18.8281 52.8789 18.7103C52.6411 18.5925 52.4488 18.4132 52.3071 18.1776C52.1654 17.942 52.0996 17.6552 52.0996 17.312V14.8381H52.8941Z" fill="#003876"/>
<path d="M58.5581 15.4907V16.4946H59.889V17.1297H58.5581V18.1899H60.061V18.8456H57.7637V14.8351H60.061V15.4907H58.5581Z" fill="#003876"/>
<path d="M65.8638 18.8456H65.0693L63.273 16.0951V18.8456H62.4785V14.8351H63.273L65.0693 17.5907V14.8351H65.8638V18.8456Z" fill="#003876"/>
<path d="M71.0401 14.8381V15.4887H69.9876V18.8435H69.1932V15.4887H68.1406V14.8381H71.0452H71.0401Z" fill="#003876"/>
<path d="M75.746 18.0824H74.1722L73.9091 18.8456H73.0742L74.4961 14.8351H75.4221L76.8441 18.8456H76.0041L75.7409 18.0824H75.746ZM75.5284 17.4422L74.9566 15.7672L74.3848 17.4422H75.5284Z" fill="#003876"/>
<path d="M76.1516 0H5.98121C3.64338 2.36122 2.33277 3.6878 0 6.05415V42H76.1516C80.4832 42 84 38.4403 84 34.0559V7.94415C84 3.55464 80.4832 0 76.1516 0ZM81.4696 34.0559C81.4696 37.0215 79.0814 39.439 76.1516 39.439H41.494V2.56097H76.1516C79.0814 2.56097 81.4696 4.97341 81.4696 7.94415V34.0559Z" fill="#003876"/>
<path d="M20.034 34.7169C13.39 34.4607 8.22852 28.7242 8.22852 21.9888V18.5981C8.22852 17.3995 9.18492 16.4315 10.369 16.4315H30.6504C31.8345 16.4315 32.7909 17.3995 32.7909 18.5981V22.291C32.7909 29.3029 27.0223 34.9781 20.034 34.7117V34.7169ZM12.5044 20.7646V22.0605C12.5044 26.4142 15.8037 30.1686 20.0999 30.3837C24.6945 30.6142 28.5049 26.8957 28.5049 22.2961V20.7646H12.5044Z" fill="white"/>
<path d="M19.1776 12.7049H11.3647C9.98323 12.7049 8.75355 11.6856 8.62203 10.2924C8.47019 8.69946 9.70491 7.35754 11.2533 7.35754H19.0663C20.4478 7.35754 21.6774 8.37679 21.809 9.76998C21.9608 11.3629 20.7261 12.7049 19.1776 12.7049Z" fill="white"/>
<path d="M28.0934 13.0364C29.7339 13.0364 31.0638 11.6903 31.0638 10.0298C31.0638 8.36929 29.7339 7.02319 28.0934 7.02319C26.453 7.02319 25.123 8.36929 25.123 10.0298C25.123 11.6903 26.453 13.0364 28.0934 13.0364Z" fill="#73B5E3"/>
</g>
</g>
<defs>
<clipPath id="clip0_5290_5362">
<rect width="84" height="42" fill="white"/>
</clipPath>
</defs>
</svg>
