<svg width="24" height="24" viewBox="0 0 24 24" fill="none" xmlns="http://www.w3.org/2000/svg">
<path d="M11.6364 22.997C6.5554 22.803 2.6084 18.458 2.6084 13.356V10.788C2.6084 9.88002 3.3394 9.14702 4.2454 9.14702H19.7544C20.6594 9.14702 21.3914 9.88002 21.3914 10.788V13.585C21.3914 18.896 16.9804 23.194 11.6364 22.993V22.997ZM5.8784 12.429V13.411C5.8784 16.709 8.4014 19.552 11.6864 19.715C15.2004 19.89 18.1134 17.073 18.1134 13.589V12.429H5.8784ZM10.9824 6.32502H5.0074C3.9514 6.32502 3.0104 5.55302 2.9104 4.49802C2.7944 3.29102 3.7384 2.27502 4.9224 2.27502H10.8974C11.9534 2.27502 12.8944 3.04702 12.9944 4.10202C13.1104 5.30902 12.1664 6.32502 10.9824 6.32502Z" fill="#1A579A"/>
<path d="M17.8003 6.57597C19.0543 6.57597 20.0713 5.55597 20.0713 4.29897C20.0713 3.04197 19.0543 2.02197 17.8003 2.02197C16.5463 2.02197 15.5293 3.04197 15.5293 4.29897C15.5293 5.55597 16.5463 6.57597 17.8003 6.57597Z" fill="#73B5E3"/>
</svg>
