<svg width="19" height="22" viewBox="0 0 19 22" fill="none" xmlns="http://www.w3.org/2000/svg">
<path d="M15.3231 11.51C15.3001 8.77398 17.5621 7.44398 17.6621 7.38298C16.3781 5.51798 14.3911 5.25798 13.6951 5.23498C12.0291 5.05898 10.4091 6.23598 9.56005 6.23598C8.69605 6.23598 7.38205 5.25798 5.97605 5.28098C4.16505 5.31198 2.46005 6.35898 1.53605 7.99398C-0.381949 11.319 1.04705 16.21 2.88905 18.9C3.81405 20.215 4.88405 21.69 6.29805 21.636C7.67405 21.582 8.19305 20.757 9.85205 20.757C11.5111 20.757 11.9841 21.636 13.4211 21.605C14.9041 21.582 15.8281 20.283 16.7231 18.953C17.7851 17.447 18.2131 15.957 18.2291 15.881C18.1911 15.866 15.3551 14.78 15.3251 11.509" fill="#343637"/>
<path d="M12.6089 3.47C13.3499 2.545 13.8549 1.284 13.7169 0C12.6469 0.046 11.3019 0.741 10.5299 1.651C9.84989 2.453 9.23789 3.76 9.39089 4.991C10.5989 5.083 11.8369 4.38 12.6089 3.47Z" fill="#343637"/>
</svg>
