<svg width="24" height="24" viewBox="0 0 24 24" fill="none" xmlns="http://www.w3.org/2000/svg">
<path d="M19.2961 9.576H14.8971V4C14.8971 2.895 14.0021 2 12.8971 2H4.7041C3.5991 2 2.7041 2.895 2.7041 4V19.966C2.7041 21.071 3.5991 21.966 4.7041 21.966H9.4401C9.6061 21.966 9.7401 21.832 9.7401 21.666V18.173C9.7401 18.007 9.8741 17.873 10.0401 17.873H12.4831C12.6491 17.873 12.7831 18.007 12.7831 18.173V21.666C12.7831 21.832 12.9171 21.966 13.0831 21.966H19.2951C20.4001 21.966 21.2951 21.071 21.2951 19.966V11.575C21.2951 10.47 20.4001 9.575 19.2951 9.575L19.2961 9.576ZM8.7801 14.193H5.1151C4.9491 14.193 4.8151 14.059 4.8151 13.893V12.993C4.8151 12.827 4.9491 12.693 5.1151 12.693H8.7801C8.9461 12.693 9.0801 12.827 9.0801 12.993V13.893C9.0801 14.059 8.9461 14.193 8.7801 14.193ZM8.7801 10.156H5.1151C4.9491 10.156 4.8151 10.022 4.8151 9.856V8.956C4.8151 8.79 4.9491 8.656 5.1151 8.656H8.7801C8.9461 8.656 9.0801 8.79 9.0801 8.956V9.856C9.0801 10.022 8.9461 10.156 8.7801 10.156ZM8.7801 6.118H5.1151C4.9491 6.118 4.8151 5.984 4.8151 5.818V4.918C4.8151 4.752 4.9491 4.618 5.1151 4.618H8.7801C8.9461 4.618 9.0801 4.752 9.0801 4.918V5.818C9.0801 5.984 8.9461 6.118 8.7801 6.118ZM18.7201 17.109H15.4851C15.3191 17.109 15.1851 16.975 15.1851 16.809V15.909C15.1851 15.743 15.3191 15.609 15.4851 15.609H18.7201C18.8861 15.609 19.0201 15.743 19.0201 15.909V16.809C19.0201 16.975 18.8861 17.109 18.7201 17.109ZM18.7201 13.401H15.4851C15.3191 13.401 15.1851 13.267 15.1851 13.101V12.201C15.1851 12.035 15.3191 11.901 15.4851 11.901H18.7201C18.8861 11.901 19.0201 12.035 19.0201 12.201V13.101C19.0201 13.267 18.8861 13.401 18.7201 13.401Z" fill="#1A579A"/>
</svg>
