<svg width="24" height="24" viewBox="0 0 24 24" fill="none" xmlns="http://www.w3.org/2000/svg">
<path d="M16.627 2H7.37305C6.26805 2 5.37305 2.895 5.37305 4V19.943C5.37305 21.048 6.26805 21.943 7.37305 21.943H16.626C17.731 21.943 18.626 21.048 18.626 19.943V4C18.626 2.895 17.731 2 16.626 2H16.627ZM10.077 3.195H13.923C14.42 3.195 14.823 3.598 14.823 4.095C14.823 4.592 14.42 4.995 13.923 4.995H10.077C9.58005 4.995 9.17705 4.592 9.17705 4.095C9.17705 3.598 9.58005 3.195 10.077 3.195ZM15.665 20.5H8.33505C8.05905 20.5 7.83505 20.276 7.83505 20C7.83505 19.724 8.05905 19.5 8.33505 19.5H15.665C15.941 19.5 16.165 19.724 16.165 20C16.165 20.276 15.941 20.5 15.665 20.5Z" fill="#1A579A"/>
</svg>
