<svg width="24" height="24" viewBox="0 0 24 24" fill="none" xmlns="http://www.w3.org/2000/svg">
<path d="M12.1451 11.5471L3.83105 20.3691V20.3771C4.15305 21.5751 5.38605 22.2841 6.58405 21.9621C6.78005 21.9091 6.96705 21.8311 7.14105 21.7281L7.16405 21.7121L16.5161 16.3181L12.1441 11.5481L12.1451 11.5471Z" fill="#EA4335"/>
<path d="M20.553 10.048L20.545 10.04L16.509 7.698L11.958 11.75L16.525 16.317L20.545 13.998C21.637 13.407 22.043 12.042 21.452 10.951C21.246 10.57 20.933 10.256 20.553 10.048Z" fill="#FBBC04"/>
<path d="M3.83093 3.6311C3.78393 3.8181 3.75293 4.0061 3.75293 4.2091V19.7991C3.75293 20.0021 3.77593 20.1891 3.83093 20.3771L12.4259 11.7821L3.83093 3.6311Z" fill="#4285F4"/>
<path d="M12.208 11.9999L16.509 7.69888L7.16503 2.28088C6.09603 1.64188 4.71103 1.98988 4.07203 3.05888C3.96703 3.23488 3.88603 3.42488 3.83203 3.62288L12.208 11.9989V11.9999Z" fill="#34A853"/>
</svg>
