<svg width="20" height="20" viewBox="0 0 20 20" fill="none" xmlns="http://www.w3.org/2000/svg">
<path d="M9.99966 1.73669C5.45466 1.73669 1.73633 5.45503 1.73633 10C1.73633 14.545 5.45466 18.2634 9.99966 18.2634C14.5447 18.2634 18.263 14.545 18.263 10C18.263 5.45503 14.5447 1.73669 9.99966 1.73669ZM10.6822 12.2075L7.40549 13.0134C7.27133 13.0467 7.13633 12.9642 7.10299 12.83L6.82466 11.6975C6.79133 11.5634 6.87383 11.4284 7.00799 11.395L9.52466 10.7759L11.5163 4.77836C11.5597 4.64753 11.7013 4.57669 11.8322 4.62003L12.9397 4.98753C13.0705 5.03086 13.1413 5.17253 13.098 5.30336L10.8597 12.0434C10.833 12.125 10.7655 12.1867 10.6822 12.2075Z" fill="#8E8F95"/>
</svg>
