<svg width="215" height="140" viewBox="0 0 215 140" fill="none" xmlns="http://www.w3.org/2000/svg">
<path d="M156.503 92.711H58.4933C58.1871 92.711 57.9365 92.4589 57.9365 92.1508V89.8167C57.9365 89.5086 58.1871 89.2565 58.4933 89.2565H156.503C156.809 89.2565 157.06 89.5086 157.06 89.8167V92.1508C157.06 92.4589 156.809 92.711 156.503 92.711ZM156.503 81.0404H58.5026C58.1964 81.0404 57.9458 80.7883 57.9458 80.4802V80.1441C57.9458 79.836 58.1964 79.5839 58.5026 79.5839H156.503C156.809 79.5839 157.06 79.836 157.06 80.1441V80.4802C157.06 80.7883 156.809 81.0404 156.503 81.0404ZM109.572 88.0148H105.396C105.09 88.0148 104.839 87.7627 104.839 87.4546V83.2532C104.839 82.9451 105.09 82.693 105.396 82.693H109.572C109.879 82.693 110.129 82.9451 110.129 83.2532V87.4546C110.129 87.7627 109.879 88.0148 109.572 88.0148ZM104.839 80.0508V78.0061C104.839 77.7447 105.044 77.5393 105.303 77.5393H109.656C109.916 77.5393 110.12 77.7447 110.12 78.0061V80.2001L104.839 80.0508ZM72.2376 88.0148H68.0614C67.7551 88.0148 67.5046 87.7627 67.5046 87.4546V83.2532C67.5046 82.9451 67.7551 82.693 68.0614 82.693H72.2376C72.5438 82.693 72.7944 82.9451 72.7944 83.2532V87.4546C72.7944 87.7627 72.5438 88.0148 72.2376 88.0148ZM67.5046 80.0508V78.0061C67.5046 77.7447 67.7087 77.5393 67.9686 77.5393H72.3211C72.5809 77.5393 72.7851 77.7447 72.7851 78.0061V80.2001L67.5046 80.0508ZM89.1092 88.0148H84.9331C84.6268 88.0148 84.3763 87.7627 84.3763 87.4546V83.2532C84.3763 82.9451 84.6268 82.693 84.9331 82.693H89.1092C89.4155 82.693 89.6661 82.9451 89.6661 83.2532V87.4546C89.6661 87.7627 89.4155 88.0148 89.1092 88.0148ZM84.3763 80.0508V78.0061C84.3763 77.7447 84.5804 77.5393 84.8403 77.5393H89.1928C89.4433 77.5393 89.6568 77.7447 89.6568 78.0061V80.2001L84.3763 80.0508ZM146.898 88.0148H142.722C142.416 88.0148 142.165 87.7627 142.165 87.4546V83.2625C142.165 82.9544 142.416 82.7023 142.722 82.7023H146.898C147.204 82.7023 147.455 82.9544 147.455 83.2625V87.4546C147.455 87.7627 147.204 88.0148 146.898 88.0148ZM142.174 80.2095V78.0154C142.174 77.754 142.378 77.5486 142.638 77.5486H146.991C147.251 77.5486 147.455 77.754 147.455 78.0154V80.0601L142.174 80.2095ZM130.026 88.0148H125.85C125.544 88.0148 125.293 87.7627 125.293 87.4546V83.2625C125.293 82.9544 125.544 82.7023 125.85 82.7023H130.026C130.333 82.7023 130.583 82.9544 130.583 83.2625V87.4546C130.583 87.7627 130.333 88.0148 130.026 88.0148ZM125.303 80.2095V78.0154C125.303 77.754 125.507 77.5486 125.767 77.5486H130.119C130.379 77.5486 130.583 77.754 130.583 78.0154V80.0601L125.303 80.2095ZM103.67 26.4128H101.879C101.573 26.4128 101.322 26.1607 101.322 25.8526V16.2081C101.322 15.9 101.573 15.6479 101.879 15.6479H103.67C103.976 15.6479 104.227 15.9 104.227 16.2081V25.8526C104.227 26.1607 103.976 26.4128 103.67 26.4128ZM113.025 26.4128H111.234C110.927 26.4128 110.677 26.1607 110.677 25.8526V16.2081C110.677 15.9 110.927 15.6479 111.234 15.6479H113.025C113.331 15.6479 113.582 15.9 113.582 16.2081V25.8526C113.582 26.1607 113.331 26.4128 113.025 26.4128ZM108.366 26.4128H106.575C106.269 26.4128 106.018 26.1607 106.018 25.8526V16.2081C106.018 15.9 106.269 15.6479 106.575 15.6479H108.366C108.672 15.6479 108.923 15.9 108.923 16.2081V25.8526C108.923 26.1607 108.672 26.4128 108.366 26.4128ZM116.412 28.859H98.4917C98.1854 28.859 97.9349 28.6069 97.9349 28.2988V28.1494C97.9349 27.8413 98.1854 27.5892 98.4917 27.5892H116.412C116.718 27.5892 116.969 27.8413 116.969 28.1494V28.2988C116.969 28.6069 116.718 28.859 116.412 28.859ZM116.412 14.7983H98.4917C98.1854 14.7983 97.9349 14.5462 97.9349 14.2381V14.0887C97.9349 13.7806 98.1854 13.5285 98.4917 13.5285H116.412C116.718 13.5285 116.969 13.7806 116.969 14.0887V14.2381C116.969 14.5462 116.718 14.7983 116.412 14.7983ZM100.329 12.6229V12.5855C100.348 8.45883 103.531 5.12571 107.466 5.12571C111.401 5.12571 114.565 8.44949 114.602 12.5575V12.6229H100.329ZM107.336 0.924309H107.586V5.76993H107.336V0.933645V0.924309ZM107.624 0.924309H107.289C107.289 0.924309 107.206 0.886963 107.206 0.840281V0.0840281C107.206 0.0840281 107.243 0 107.289 0H107.624C107.624 0 107.707 0.0373458 107.707 0.0840281V0.849617C107.707 0.849617 107.67 0.933645 107.624 0.933645M105.378 3.70657H109.526V3.93065H105.378V3.70657ZM109.461 3.78126H109.173C109.173 3.78126 109.108 3.75325 109.108 3.71591V2.997C109.108 2.997 109.136 2.93165 109.173 2.93165H109.461C109.461 2.93165 109.526 2.95966 109.526 2.997V3.71591C109.526 3.71591 109.498 3.78126 109.461 3.78126ZM105.73 3.78126H105.443C105.443 3.78126 105.378 3.75325 105.378 3.71591V2.997C105.378 2.997 105.406 2.93165 105.443 2.93165H105.73C105.73 2.93165 105.795 2.95966 105.795 2.997V3.71591C105.795 3.71591 105.767 3.78126 105.73 3.78126ZM156.744 81.0498H58.2428C58.0757 81.0498 57.9365 80.9097 57.9365 80.7417V79.9107C57.9365 79.7427 58.0757 79.6026 58.2428 79.6026H156.744C156.912 79.6026 157.051 79.7427 157.051 79.9107V80.7417C157.051 80.9097 156.912 81.0498 156.744 81.0498ZM116.672 28.8777H98.2318C98.0648 28.8777 97.9256 28.7376 97.9256 28.5696V27.86C97.9256 27.6919 98.0648 27.5519 98.2318 27.5519H116.672C116.839 27.5519 116.978 27.6919 116.978 27.86V28.5696C116.978 28.7376 116.839 28.8777 116.672 28.8777ZM116.672 14.873H98.2318C98.0648 14.873 97.9256 14.7329 97.9256 14.5649V13.8553C97.9256 13.6872 98.0648 13.5472 98.2318 13.5472H116.672C116.839 13.5472 116.978 13.6872 116.978 13.8553V14.5649C116.978 14.7329 116.839 14.873 116.672 14.873ZM99.2805 31.968C99.2805 31.968 96.9697 34.2088 94.9187 37.4392C89.8609 45.4032 86.3901 54.7116 85.2022 66.2235C84.7104 71.0037 84.7382 74.7757 84.7753 73.8233C84.7475 74.645 84.7104 76.1108 84.7104 76.1108L72.4139 76.0734C72.4139 76.0734 72.451 75.5693 72.451 75.5132C72.7665 71.0504 73.7224 64.2908 76.4508 57.5219C77.119 55.8693 77.8707 54.2168 78.7616 52.5923C80.3857 49.6606 82.2047 47.1024 84.0793 44.8337C84.534 44.2828 85.1558 43.5452 85.7312 42.9103C86.2973 42.2755 86.8263 41.734 86.9748 41.5846C88.4689 40.0534 91.2808 37.3645 94.5846 34.993C95.5034 34.3395 96.4871 33.6953 97.4708 33.0604C98.139 32.6309 99.3455 31.9027 99.3455 31.9027L99.2898 31.9774L99.2805 31.968ZM83.3276 38.0274C78.9473 42.6769 76.5251 47.0931 74.14 51.808C72.8222 54.4222 71.9684 56.859 71.2074 59.0157C71.0682 59.4265 69.8618 62.769 69.1008 66.5876C68.2099 71.0598 67.7644 76.0828 67.7644 76.0828H60.9341C60.9341 76.0828 61.4259 71.4612 62.0756 68.5763C62.9294 64.7483 64.3492 60.4069 66.5116 56.1214C68.3584 52.4429 70.4928 49.1844 72.7294 46.3742C73.9544 44.8243 75.7641 42.7423 77.6851 40.9123C79.9774 38.7276 82.316 36.907 82.4831 36.7856C83.2533 36.2068 83.9401 35.6653 84.6825 35.1611C86.3344 34.0407 87.8842 33.1164 89.1742 32.3695C89.8702 31.968 90.4363 31.6319 90.8725 31.3612C90.1208 31.884 89.0907 32.6496 87.9214 33.6206C86.1581 35.0771 84.6825 36.5896 83.3461 38.0087M91.0952 31.2398C88.9422 32.7149 85.1651 35.4132 85.1651 35.4132L72.4139 49.1378L65.9269 76.0828L60.7021 76.0641C60.7021 76.0641 60.7021 76.0268 60.7021 76.0081C61.4538 55.2905 74.3999 37.7099 92.5337 30.3435C92.5522 30.3341 92.5987 30.3155 92.5987 30.3155C92.5987 30.3155 91.9212 30.6703 91.0952 31.2398ZM99.2991 31.9494C99.2991 31.9494 96.9883 34.1901 94.9373 37.4205C89.8795 45.3845 86.4087 54.693 85.2208 66.2048C84.7289 70.9851 84.7568 74.757 84.7939 73.8047C84.766 74.6263 84.7289 76.0921 84.7289 76.0921L72.4324 76.0548C72.4324 76.0548 72.4696 75.5506 72.4696 75.4946C72.7851 71.0317 73.741 64.2722 76.4694 57.5032C77.1376 55.8507 77.8893 54.1981 78.7802 52.5736C80.4043 49.6419 82.2232 47.0837 84.0978 44.815C84.5526 44.2641 85.1744 43.5266 85.7498 42.8917C86.3159 42.2568 86.8448 41.7153 86.9933 41.5659C88.4875 40.0347 91.2994 37.3458 94.6032 34.9744C95.522 34.3208 96.5057 33.6766 97.4894 33.0417C98.1576 32.6122 99.364 31.884 99.364 31.884L99.3084 31.9587L99.2991 31.9494ZM89.3413 76.1201C89.3413 76.1201 89.3413 75.672 89.3413 75.4479C89.3413 56.971 95.6705 40.931 104.942 32.9017C105.006 32.8456 105.136 32.7336 105.136 32.7336V76.0641L89.3413 76.1201ZM98.8072 32.3135L89.8331 41.7433L81.8149 60.7243L84.766 76.0921L72.3768 76.0454C72.3768 76.0454 72.3768 75.9707 72.386 75.9334C74.1864 55.2531 84.9424 38.1768 99.3269 31.884C99.3826 31.856 98.8072 32.3135 98.8072 32.3135ZM142.61 76.0361L130.314 76.0734C130.314 76.0734 130.286 74.6076 130.249 73.786C130.286 74.7383 130.314 70.9664 129.822 66.1861C128.634 54.6836 125.163 45.3658 120.115 37.4112C118.064 34.1808 115.753 31.94 115.753 31.94L115.697 31.8653C115.697 31.8653 116.895 32.5936 117.572 33.023C118.556 33.6579 119.54 34.3021 120.449 34.9557C123.753 37.3271 126.565 40.016 128.059 41.5472C128.207 41.7059 128.727 42.2381 129.302 42.873C129.878 43.5079 130.5 44.2455 130.954 44.7963C132.829 47.0651 134.648 49.6233 136.272 52.5549C137.172 54.1794 137.915 55.832 138.583 57.4752C141.321 64.2441 142.276 70.9944 142.583 75.4572C142.583 75.4479 142.62 76.0267 142.62 76.0267M147.279 76.0267C147.279 76.0267 146.824 71.0131 145.942 66.5316C145.181 62.713 143.975 59.3705 143.835 58.9597C143.075 56.7937 142.23 54.3662 140.903 51.752C138.518 47.0371 136.086 42.6209 131.715 37.9714C130.379 36.5522 128.894 35.0397 127.14 33.5832C125.971 32.6122 124.941 31.856 124.198 31.3238C124.634 31.5946 125.201 31.9213 125.897 32.3228C127.196 33.0697 128.736 33.994 130.388 35.1144C131.131 35.6186 131.817 36.1508 132.588 36.7389C132.755 36.8603 135.084 38.6809 137.386 40.8657C139.307 42.6863 141.107 44.7776 142.341 46.3275C144.578 49.1378 146.712 52.3962 148.559 56.0654C150.712 60.3508 152.132 64.6923 152.995 68.5202C153.645 71.4052 154.137 76.0267 154.137 76.0267H147.306H147.279ZM148.736 73.87L142.657 49.1004L129.906 35.3758C129.906 35.3758 126.129 32.6776 123.976 31.2024C123.15 30.6329 122.472 30.2781 122.472 30.2781C122.472 30.2781 122.519 30.2968 122.537 30.3061C140.671 37.6726 153.617 55.2531 154.369 75.9614C154.369 75.9801 154.369 76.0174 154.369 76.0174L148.745 73.87H148.736ZM142.629 76.0174L130.333 76.0548C130.333 76.0548 130.305 74.5889 130.268 73.7673C130.305 74.7197 130.333 70.9477 129.841 66.1675C128.653 54.6649 125.182 45.3472 120.133 37.3925C118.083 34.1621 115.772 31.9213 115.772 31.9213L115.716 31.8466C115.716 31.8466 116.913 32.5749 117.591 33.0044C118.574 33.6392 119.558 34.2835 120.468 34.937C123.771 37.3085 126.583 39.9974 128.077 41.5285C128.226 41.6873 128.746 42.2195 129.321 42.8543C129.896 43.4892 130.518 44.2268 130.973 44.7776C132.848 47.0464 134.667 49.6046 136.291 52.5362C137.191 54.1608 137.933 55.8133 138.601 57.4565C141.339 64.2255 142.295 70.9757 142.601 75.4386C142.601 75.4292 142.638 76.0081 142.638 76.0081M125.73 76.0734L109.934 76.0174V32.6963C109.934 32.6963 110.064 32.8083 110.139 32.8643C119.41 40.8937 125.739 56.9244 125.739 75.3919C125.739 75.616 125.739 76.0641 125.739 76.0641M130.323 76.0361L133.274 60.6776L125.256 41.6966L116.282 32.2668C116.282 32.2668 115.707 31.8093 115.762 31.8373C130.147 38.1207 140.912 55.1971 142.713 75.8774C142.713 75.9147 142.722 75.9987 142.722 75.9987L130.333 76.0454L130.323 76.0361Z" fill="white"/>
<path d="M57.8062 105.194V105.175C57.8062 103.355 59.1425 101.73 61.1192 101.73C62.2329 101.73 62.9289 102.057 63.5878 102.617L63.1052 103.186C62.5948 102.738 62.0287 102.421 61.0914 102.421C59.6251 102.421 58.5764 103.663 58.5764 105.147V105.166C58.5764 106.753 59.588 107.929 61.1935 107.929C61.9545 107.929 62.6505 107.64 63.1052 107.266V105.614H61.0914V104.942H63.8198V107.593C63.2073 108.144 62.2793 108.611 61.1656 108.611C59.0868 108.611 57.7969 107.089 57.7969 105.184" fill="white"/>
<path d="M72.2656 105.194V105.175C72.2656 103.663 71.1705 102.43 69.6578 102.43C68.1451 102.43 67.0686 103.644 67.0686 105.156V105.175C67.0686 106.688 68.1637 107.92 69.6764 107.92C71.1891 107.92 72.2656 106.706 72.2656 105.194ZM66.2891 105.194V105.175C66.2891 103.336 67.6626 101.73 69.6764 101.73C71.6902 101.73 73.0452 103.317 73.0452 105.156C73.0452 105.156 73.0452 105.163 73.0452 105.175C73.0452 107.014 71.6717 108.62 69.6578 108.62C67.644 108.62 66.2891 107.033 66.2891 105.194Z" fill="white"/>
<path d="M78.6592 107.827C79.6614 107.827 80.2832 107.379 80.2832 106.641V106.622C80.2832 105.903 79.68 105.483 78.5292 105.483H76.4412V107.827H78.6592ZM78.39 104.811C79.2902 104.811 79.912 104.4 79.912 103.625V103.607C79.912 102.953 79.3923 102.524 78.4457 102.524H76.4319V104.811H78.39ZM75.6987 101.842H78.5107C79.2717 101.842 79.8656 102.057 80.2368 102.43C80.506 102.72 80.6637 103.065 80.6637 103.495V103.513C80.6637 104.382 80.1347 104.83 79.615 105.054C80.3946 105.297 81.0349 105.745 81.0349 106.66V106.678C81.0349 107.817 80.0791 108.499 78.6313 108.499H75.6895V101.842H75.6987Z" fill="white"/>
<path d="M84.4128 101.842H83.6611V108.499H84.4128V101.842Z" fill="white"/>
<path d="M87.4297 101.842H92.2091V102.533H88.1721V104.802H91.7822V105.483H88.1721V107.817H92.2555V108.499H87.4297V101.842Z" fill="white"/>
<path d="M97.6098 105.241C98.6028 105.241 99.3081 104.727 99.3081 103.868V103.849C99.3081 103.037 98.6863 102.542 97.6191 102.542H95.5774V105.241H97.6098ZM94.835 101.842H97.684C98.5007 101.842 99.1503 102.085 99.5679 102.505C99.8928 102.832 100.078 103.299 100.078 103.821V103.84C100.078 104.942 99.3174 105.586 98.278 105.782L100.31 108.499H99.3916L97.4706 105.913H95.5774V108.499H94.835V101.842Z" fill="white"/>
<path d="M102.742 101.842H103.447L107.614 107.182V101.842H108.338V108.499H107.744L103.475 103.046V108.499H102.742V101.842Z" fill="white"/>
<path d="M116.969 105.194V105.175C116.969 103.663 115.874 102.43 114.361 102.43C112.848 102.43 111.772 103.644 111.772 105.156V105.175C111.772 106.688 112.867 107.92 114.38 107.92C115.892 107.92 116.969 106.706 116.969 105.194ZM110.992 105.194V105.175C110.992 103.336 112.366 101.73 114.38 101.73C116.393 101.73 117.748 103.317 117.748 105.156C117.748 105.156 117.748 105.163 117.748 105.175C117.748 107.014 116.375 108.62 114.361 108.62C112.347 108.62 110.992 107.033 110.992 105.194Z" fill="white"/>
<path d="M126.601 107.808C128.272 107.808 129.339 106.669 129.339 105.194V105.175C129.339 103.7 128.272 102.542 126.601 102.542H125.052V107.808H126.601ZM124.3 101.842H126.601C128.68 101.842 130.119 103.28 130.119 105.147V105.166C130.119 107.043 128.68 108.49 126.601 108.49H124.3V101.833V101.842Z" fill="white"/>
<path d="M132.773 101.842H137.553V102.533H133.516V104.802H137.126V105.483H133.516V107.817H137.599V108.499H132.773V101.842Z" fill="white"/>
<path d="M144.095 101.842H144.837V107.808H148.559V108.499H144.095V101.842Z" fill="white"/>
<path d="M155.315 106.062L153.811 102.673L152.298 106.062H155.315ZM153.468 101.795H154.164L157.18 108.499H156.373L155.602 106.744H152.001L151.222 108.499H150.461L153.477 101.795H153.468Z" fill="white"/>
<path d="M6.02197 117.07C6.02197 115.604 5.09394 114.876 3.87821 114.876C3.07082 114.876 2.81097 115.203 2.81097 115.977V118.806H3.21002C5.24242 118.806 6.02197 118.452 6.02197 117.079M10.0218 123.857C9.15873 124.147 7.97085 124.1 7.15417 123.045L5.05681 120.328C4.47215 119.563 3.77613 119.451 2.82025 119.432V122.093C2.82025 123.055 3.46987 123.213 4.35151 123.325C4.44431 123.335 4.37935 123.792 4.26799 123.792H0.138226C0.0268618 123.792 -0.0473812 123.344 0.0547027 123.325C0.750729 123.232 1.18691 122.952 1.18691 122.093V115.968C1.18691 115.063 0.713608 114.801 0.0547027 114.624C-0.0566616 114.596 0.0175814 114.148 0.138226 114.157C0.667206 114.222 1.27043 114.241 1.70661 114.241C2.71816 114.241 3.65548 114.157 4.31439 114.157C6.37463 114.157 7.74812 115.007 7.74812 116.696C7.74812 118.293 6.46743 119.068 5.31666 119.143V119.208C5.86421 119.208 6.25398 119.441 6.8572 120.198L8.8896 122.765C9.3165 123.297 9.72483 123.456 10.0218 123.456C10.1332 123.456 10.1053 123.829 10.0218 123.857Z" fill="white"/>
<path d="M12.2214 123.334C13.0102 123.129 13.6227 123.008 13.6227 121.99V115.893C13.6227 115.016 13.0659 114.782 12.4719 114.633C12.3606 114.605 12.4348 114.147 12.5369 114.166C13.5299 114.278 15.256 114.25 16.082 114.25C17.3256 114.25 18.2258 114.194 19.3394 114.166C19.6642 114.166 19.6642 114.39 19.5993 114.708L19.2744 116.015C19.2373 116.211 18.8939 116.211 18.8383 116.015C18.6341 115.342 18.2258 114.96 16.5182 114.96C15.5623 114.96 15.2468 115.202 15.2468 115.921V118.162C15.2468 118.517 15.4231 118.592 15.7015 118.592H15.9985C17.1028 118.592 18.0587 118.48 18.6155 117.975C18.7547 117.854 19.0517 117.882 18.9311 118.153L18.1515 119.88C18.0401 120.123 17.836 120.104 17.6875 119.889C17.372 119.451 16.6759 119.273 15.8871 119.273H15.6922C15.4231 119.273 15.2375 119.338 15.2375 119.703V122.009C15.2375 122.793 15.5623 123.082 16.6945 123.082C18.7547 123.082 19.5714 122.139 19.8962 121.617C19.989 121.467 20.3602 121.533 20.3602 121.766C20.3602 122.466 19.7756 123.857 18.9125 123.857C18.1515 123.82 17.3998 123.773 16.249 123.773C14.9962 123.773 13.5021 123.727 12.2678 123.857C12.1286 123.876 12.0729 123.391 12.1842 123.362" fill="white"/>
<path d="M25.8359 115.968V119.441C28.156 119.768 29.3717 119.208 29.3717 117.406C29.3717 115.772 28.3323 114.866 26.931 114.866C26.0679 114.866 25.8359 115.165 25.8359 115.968ZM25.8359 120.114V122.093C25.8359 123.055 26.4948 123.213 27.3671 123.325C27.4599 123.335 27.395 123.792 27.2836 123.792H23.1539C23.0425 123.792 22.959 123.344 23.0703 123.325C23.7664 123.232 24.2025 122.952 24.2025 122.093V115.968C24.2025 115.063 23.7292 114.801 23.0703 114.624C22.959 114.596 23.0332 114.148 23.1539 114.157C23.6828 114.222 24.2861 114.241 24.7222 114.241C25.7338 114.241 26.5783 114.157 27.2743 114.157C29.3903 114.157 31.135 114.941 31.135 117.098C31.135 119.544 28.8613 120.571 25.8452 120.114" fill="white"/>
<path d="M38.9952 110.768C39.2365 110.413 40.3872 111.468 40.0624 111.711L38.2713 113.074C38.095 113.214 37.6124 112.775 37.7516 112.579L38.9952 110.768ZM34.9861 120.197V115.884C34.9861 115.016 34.5499 114.736 33.8817 114.652C33.7703 114.642 33.8538 114.185 33.9652 114.185H37.6866C37.798 114.185 37.8815 114.633 37.7702 114.652C37.2226 114.717 36.6751 114.922 36.6751 115.884V120.263C36.6751 122.186 37.7794 123.073 39.2272 123.073C40.6749 123.073 41.8999 122.177 41.8999 120.263V115.884C41.8999 114.988 41.3988 114.745 40.7306 114.652C40.6378 114.642 40.7028 114.185 40.8141 114.185H43.8859C43.9787 114.185 44.0622 114.633 43.9509 114.652C43.4033 114.717 42.8558 114.922 42.8558 115.884V120.179C42.8558 122.709 41.2317 124.007 39.0601 124.007C37.1391 124.007 34.9768 122.98 34.9768 120.188" fill="white"/>
<path d="M53.1194 121.327C53.1194 119.815 52.1264 119.021 50.855 119.021H49.4536V121.981C49.4536 122.737 49.8341 123.11 51.022 123.11C52.2099 123.11 53.1194 122.756 53.1194 121.327ZM49.4536 115.893V118.339H50.855C51.8387 118.339 52.4141 117.845 52.4141 116.79C52.4141 115.483 51.5417 114.885 50.4188 114.885C49.6949 114.885 49.4536 115.128 49.4536 115.903M54.8827 121.038C54.8827 122.737 53.3421 123.839 51.0591 123.839C50.4002 123.839 49.6393 123.755 48.6277 123.755C47.7646 123.755 47.115 123.764 46.4839 123.839C46.3633 123.857 46.289 123.372 46.4004 123.344C47.1892 123.138 47.8017 123.017 47.8017 121.999V115.903C47.8017 115.025 47.2449 114.792 46.6603 114.642C46.5489 114.614 46.6139 114.166 46.7252 114.175C47.282 114.241 47.9409 114.259 48.3771 114.259C49.4722 114.259 50.2703 114.175 50.8735 114.175C52.6368 114.175 54.0845 114.913 54.0938 116.426C54.1124 117.537 53.3328 118.311 52.377 118.498V118.582C53.6484 118.582 54.8734 119.497 54.8734 121.038" fill="white"/>
<path d="M57.4914 123.335C58.2802 123.129 58.8927 123.008 58.8927 121.99V115.894C58.8927 114.932 58.3359 114.745 57.742 114.661C57.6306 114.652 57.7141 114.194 57.8069 114.194H61.5747C61.6675 114.194 61.7418 114.642 61.6397 114.661C61.0643 114.727 60.5168 114.932 60.5168 115.894V121.99C60.5168 122.775 60.8416 123.064 61.9738 123.064C64.034 123.064 64.8507 122.121 65.1755 121.598C65.2683 121.449 65.6395 121.514 65.6395 121.748C65.6395 122.448 65.0549 123.839 64.1918 123.839C63.4308 123.802 62.6791 123.755 61.5283 123.755C60.2755 123.755 58.7814 123.708 57.5471 123.839C57.4079 123.858 57.3522 123.372 57.4635 123.344" fill="white"/>
<path d="M68.0702 123.335C68.7662 123.241 69.2024 122.961 69.2024 122.102V115.894C69.2024 115.025 68.7662 114.755 68.0702 114.661C67.9588 114.652 68.0423 114.194 68.1537 114.194H71.8937C72.005 114.194 72.0886 114.642 71.9772 114.661C71.3925 114.745 70.845 114.932 70.845 115.894V122.102C70.845 123.064 71.3925 123.251 71.9772 123.335C72.0886 123.344 72.005 123.802 71.8937 123.802H68.1537C68.0423 123.802 67.9588 123.353 68.0702 123.335Z" fill="white"/>
<path d="M74.8545 119.171C74.8545 116.799 76.3022 113.97 80.1165 113.97C81.7034 113.97 83.0583 114.465 82.9006 114.941L82.7242 115.473C82.2324 116.939 81.7034 115.063 79.2719 115.063C77.3231 115.063 76.3672 116.342 76.3672 118.321C76.3672 121.411 78.6966 122.7 80.5712 122.7C80.8125 122.7 82.056 122.504 82.7706 122.056C82.882 121.99 83.1697 122.298 83.0862 122.429C82.5015 123.297 80.6733 124.026 80.2464 124.026C77.9541 124.026 74.8545 122.681 74.8545 119.18" fill="white"/>
<path d="M91.7348 120.188L90.1386 116.341L88.5331 120.188C88.4495 120.384 88.6537 120.412 88.8486 120.412H91.4285C91.6234 120.412 91.8276 120.384 91.7441 120.188M95.549 123.801H91.9482C91.7719 123.801 91.7534 123.363 91.9018 123.335C92.403 123.241 92.9505 123.054 92.4494 121.878L92.3009 121.533C92.1617 121.206 91.9297 121.178 91.5213 121.178H88.7372C88.3289 121.178 88.0969 121.206 87.9577 121.533L87.8185 121.878C87.3452 123.054 87.8556 123.241 88.5145 123.335C88.6908 123.363 88.6537 123.801 88.4774 123.801H85.5262C85.3592 123.801 85.3221 123.363 85.4891 123.335C86.0459 123.241 86.38 123.045 86.8812 121.878L89.1827 116.556C89.7117 115.342 89.8787 114.782 89.8787 114.259C89.8787 114.175 90.8346 113.961 90.8717 114.054L94.2034 121.859C94.6952 123.026 95.02 123.241 95.5676 123.325C95.7625 123.353 95.7068 123.792 95.5397 123.792" fill="white"/>
<path d="M110.351 119.572C110.351 116.948 108.932 114.894 106.482 114.894C105.516 114.894 105.201 115.193 105.201 115.893V121.99C105.201 122.728 105.702 123.101 107.029 123.101C109.256 123.101 110.361 121.897 110.361 119.572M102.166 123.334C102.955 123.129 103.568 123.008 103.568 121.99V115.893C103.568 115.016 103.011 114.782 102.426 114.633C102.315 114.605 102.389 114.147 102.491 114.166C103.048 114.231 103.623 114.25 104.199 114.25C105.266 114.25 106.222 114.166 106.918 114.166C110.222 114.166 112.003 116.145 112.003 118.788C112.003 121.43 110.212 123.829 106.899 123.829C106.24 123.829 105.396 123.745 104.384 123.745C103.54 123.745 102.871 123.755 102.24 123.829C102.101 123.848 102.046 123.362 102.157 123.334" fill="white"/>
<path d="M123.214 119.693C123.214 116.92 121.349 114.904 119.381 114.904C118.184 114.904 116.597 115.697 116.597 118.284C116.597 121.085 118.463 123.092 120.421 123.092C121.618 123.092 123.214 122.298 123.214 119.703M114.964 119.059C114.964 116.286 116.931 113.979 119.92 113.979C122.908 113.979 124.847 116.08 124.847 118.937C124.847 121.794 122.899 124.026 119.892 124.026C117.052 124.026 114.964 121.915 114.964 119.059Z" fill="white"/>
<path d="M139.687 123.801H136.123C136.03 123.801 135.956 123.353 136.04 123.334C136.615 123.241 137.033 122.961 136.996 122.102L136.736 117.49L134.527 122.018C134.239 122.606 134.026 123.213 133.979 123.428C133.952 123.596 133.664 123.671 133.45 123.671C133.246 123.671 133.107 123.587 133.024 123.428L129.868 117.415L129.664 122.093C129.627 123.054 130.184 123.278 130.62 123.325C130.731 123.334 130.648 123.792 130.555 123.792H127.734C127.622 123.792 127.539 123.344 127.65 123.325C128.235 123.26 128.727 123.045 128.782 122.093L129.219 114.213C129.228 113.979 129.748 113.97 129.887 114.213L133.84 121.654L137.506 114.213C137.627 113.97 138.174 113.979 138.193 114.213L138.629 122.093C138.685 123.054 139.176 123.26 139.743 123.325C139.854 123.334 139.77 123.792 139.678 123.792" fill="white"/>
<path d="M142.489 123.335C143.185 123.241 143.621 122.961 143.621 122.102V115.894C143.621 115.025 143.185 114.755 142.489 114.661C142.378 114.652 142.461 114.194 142.573 114.194H146.313C146.424 114.194 146.508 114.642 146.396 114.661C145.811 114.745 145.264 114.932 145.264 115.894V122.102C145.264 123.064 145.811 123.251 146.396 123.335C146.508 123.344 146.424 123.802 146.313 123.802H142.573C142.461 123.802 142.378 123.353 142.489 123.335Z" fill="white"/>
<path d="M157.607 123.671L151.111 116.837V122.056C151.111 122.989 151.659 123.139 152.438 123.335C152.55 123.363 152.494 123.802 152.355 123.802H149.125C149.014 123.802 148.93 123.372 149.06 123.335C149.636 123.139 150.174 123.036 150.174 122.056V116.734C150.174 115.763 150.025 115.296 149.673 114.811C149.552 114.642 149.431 114.54 149.431 114.493C149.431 114.372 149.515 114.194 149.7 114.194H150.712C150.851 114.194 150.944 114.213 151.037 114.316L157.394 121.085V115.922C157.394 114.951 156.781 114.839 156.067 114.661C155.955 114.633 156.011 114.194 156.15 114.194H159.389C159.501 114.194 159.565 114.633 159.454 114.661C158.851 114.839 158.34 114.951 158.34 115.922V121.262C158.34 122.168 158.368 123.167 158.508 123.68C158.563 123.886 158.34 123.942 158.127 123.942C157.895 123.942 157.774 123.848 157.626 123.68" fill="white"/>
<path d="M162.182 123.335C162.878 123.241 163.315 122.961 163.315 122.102V115.894C163.315 115.025 162.878 114.755 162.182 114.661C162.071 114.652 162.155 114.194 162.266 114.194H166.006C166.117 114.194 166.201 114.642 166.09 114.661C165.505 114.745 164.957 114.932 164.957 115.894V122.102C164.957 123.064 165.505 123.251 166.09 123.335C166.201 123.344 166.117 123.802 166.006 123.802H162.266C162.155 123.802 162.071 123.353 162.182 123.335Z" fill="white"/>
<path d="M168.967 119.171C168.967 116.799 170.415 113.97 174.229 113.97C175.816 113.97 177.18 114.465 177.013 114.941L176.837 115.473C176.345 116.939 175.816 115.063 173.384 115.063C171.435 115.063 170.479 116.342 170.479 118.321C170.479 121.411 172.809 122.7 174.684 122.7C174.925 122.7 176.168 122.504 176.883 122.056C176.994 121.99 177.282 122.298 177.198 122.429C176.614 123.297 174.786 124.026 174.359 124.026C172.066 124.026 168.967 122.681 168.967 119.18" fill="white"/>
<path d="M185.847 120.188L184.251 116.341L182.646 120.188C182.562 120.384 182.766 120.412 182.961 120.412H185.541C185.736 120.412 185.94 120.384 185.857 120.188M189.661 123.801H186.061C185.884 123.801 185.866 123.363 186.024 123.335C186.525 123.241 187.072 123.054 186.571 121.878L186.423 121.533C186.283 121.206 186.051 121.178 185.643 121.178H182.859C182.451 121.178 182.219 121.206 182.079 121.533L181.94 121.878C181.458 123.054 181.977 123.241 182.636 123.335C182.813 123.363 182.775 123.801 182.59 123.801H179.648C179.481 123.801 179.444 123.363 179.602 123.335C180.158 123.241 180.492 123.045 180.994 121.878L183.295 116.556C183.833 115.342 183.991 114.782 183.991 114.259C183.991 114.175 184.947 113.961 184.984 114.054L188.316 121.859C188.808 123.026 189.133 123.241 189.68 123.325C189.875 123.353 189.819 123.792 189.652 123.792" fill="white"/>
<path d="M200.77 123.671L194.274 116.837V122.056C194.274 122.989 194.822 123.139 195.601 123.335C195.713 123.363 195.657 123.802 195.518 123.802H192.288C192.177 123.802 192.093 123.372 192.223 123.335C192.799 123.139 193.337 123.036 193.337 122.056V116.734C193.337 115.763 193.188 115.296 192.836 114.811C192.715 114.642 192.594 114.54 192.594 114.493C192.594 114.372 192.678 114.194 192.864 114.194H193.875C194.014 114.194 194.107 114.213 194.2 114.316L200.557 121.085V115.922C200.557 114.951 199.944 114.839 199.23 114.661C199.119 114.633 199.174 114.194 199.313 114.194H202.552C202.664 114.194 202.729 114.633 202.617 114.661C202.014 114.839 201.504 114.951 201.504 115.922V121.262C201.504 122.168 201.531 123.167 201.671 123.68C201.726 123.886 201.504 123.942 201.29 123.942C201.058 123.942 200.937 123.848 200.789 123.68" fill="white"/>
<path d="M211.044 120.188L209.447 116.341L207.842 120.188C207.758 120.384 207.962 120.412 208.157 120.412H210.737C210.932 120.412 211.136 120.384 211.053 120.188M214.858 123.801H211.257C211.081 123.801 211.062 123.363 211.22 123.335C211.721 123.241 212.269 123.054 211.767 121.878L211.619 121.533C211.48 121.206 211.248 121.178 210.839 121.178H208.055C207.647 121.178 207.415 121.206 207.276 121.533L207.137 121.878C206.654 123.054 207.174 123.241 207.833 123.335C208.009 123.363 207.972 123.801 207.786 123.801H204.844C204.677 123.801 204.64 123.363 204.798 123.335C205.355 123.241 205.689 123.045 206.19 121.878L208.491 116.556C209.03 115.342 209.187 114.782 209.187 114.259C209.187 114.175 210.143 113.961 210.18 114.054L213.512 121.859C214.004 123.026 214.329 123.241 214.876 123.325C215.071 123.353 215.016 123.792 214.848 123.792" fill="white"/>
<path d="M157.199 135.5H57.7969V140H157.199V135.5Z" fill="white"/>
</svg>
